<?xml version="1.0" encoding="UTF-8" standalone="no"?><!-- Generator: Gravit.io --><svg xmlns="http://www.w3.org/2000/svg" xmlns:xlink="http://www.w3.org/1999/xlink" style="isolation:isolate" viewBox="239.256 196 1258 752" width="1258pt" height="752pt"><defs><clipPath id="_clipPath_eRy0DiN6Fn9brhgpUr8dGVOAoQZOgvst"><rect x="239.256" y="196" width="1257.744" height="752"/></clipPath></defs><g clip-path="url(#_clipPath_eRy0DiN6Fn9brhgpUr8dGVOAoQZOgvst)"><g><g><rect x="239.256" y="223.739" width="1257.744" height="724.261" transform="matrix(1,0,0,1,0,0)" fill="rgb(235,235,235)"/><path d=" M 310.648 196 L 866.435 198.946 L 1448.54 208.614 L 1165.306 437.055 L 856.725 673.023 L 584.173 441.636 L 310.648 196 Z " fill="rgb(74,134,232)"/></g><g clip-path="url(#_clipPath_tiECZj3ZFOnazyGoRwZ06XGRfLehmgFD)"><text transform="matrix(9.246,0,0,9.246,440.436,862.526)" style="font-family:'URW Gothic';font-weight:400;font-size:15px;font-style:normal;font-variant-ligatures:none;letter-spacing:15;fill:#4a86e8;stroke:none;">ailer</text></g><defs><clipPath id="_clipPath_tiECZj3ZFOnazyGoRwZ06XGRfLehmgFD"><rect x="0" y="0" width="120" height="15" transform="matrix(9.246,0,0,9.246,313.344,760.03)"/></clipPath></defs><polygon points="609.542,425.417,470.415,281.529,664.59,232.986" fill="rgb(122,160,221)" fill-opacity="0.68"/><polygon points="881.733,612.083,742.606,468.195,936.78,419.652" fill="rgb(160,186,227)" fill-opacity="0.68"/><polygon points="1062.616,425.417,923.488,281.529,1117.663,232.986" fill="rgb(75,123,200)" fill-opacity="0.68"/><polygon points="813.081,425.417,673.954,281.529,868.128,232.986" fill="rgb(75,123,200)" fill-opacity="0.68"/></g></g></svg>